<svg width="358" height="64" viewBox="0 0 358 64" fill="none" xmlns="http://www.w3.org/2000/svg">
<path d="M83.687 50.3994V31.0676H79.603V24.2605H83.687V21.5379C83.687 18.4154 84.4948 16.0012 86.1103 14.2952C87.7262 12.5888 89.9134 11.7358 92.6723 11.7358C93.8341 11.7358 94.996 11.881 96.1579 12.1714C96.3754 12.2442 96.8476 12.3713 97.5735 12.5526V19.3597C97.5011 19.3597 97.2103 19.2688 96.702 19.0875C96.0485 18.9061 95.3407 18.8148 94.5781 18.8148C93.4891 18.8148 92.6266 19.1508 91.9916 19.8224C91.3562 20.494 91.0387 21.4289 91.0387 22.6269V24.261H97.029V31.068H91.0387V50.3998H83.687V50.3994ZM102.202 39.7806V23.716H109.553V38.6911C109.553 40.3251 109.989 41.5956 110.86 42.5033C111.732 43.4106 112.929 43.8646 114.454 43.8646C116.088 43.8646 117.449 43.302 118.538 42.1767C119.628 41.051 120.172 39.6173 120.172 37.8743V23.716H127.524V50.3994H120.172V46.5873H119.9C119.319 47.386 118.647 48.1123 117.885 48.7658C116.142 50.2181 114.182 50.944 112.004 50.944C109.208 50.944 106.875 49.9182 105.006 47.8672C103.136 45.8161 102.201 43.1206 102.201 39.7806H102.202ZM134.603 50.3994V23.716H141.955V27.5282H142.227C142.808 26.729 143.48 26.0031 144.242 25.3496C145.984 23.8974 147.945 23.1715 150.124 23.1715C152.919 23.1715 155.251 24.1972 157.121 26.2483C158.991 28.2993 159.926 30.9948 159.926 34.3348V50.3994H152.574V35.4239C152.574 33.7903 152.138 32.5199 151.267 31.6122C150.396 30.7045 149.198 30.2508 147.673 30.2508C146.04 30.2508 144.678 30.8135 143.589 31.9387C142.5 33.0644 141.955 34.4981 141.955 36.2411V50.3994H134.603H134.603ZM186.064 50.3994V46.5873H185.792C185.284 47.3498 184.594 48.0761 183.723 48.7658C181.762 50.2181 179.639 50.944 177.352 50.944C174.12 50.944 171.316 49.6279 168.938 46.9957C166.56 44.3635 165.371 41.051 165.371 37.0575C165.371 33.1002 166.56 29.7968 168.938 27.1465C171.316 24.4962 174.12 23.1711 177.352 23.1711C179.639 23.1711 181.762 23.897 183.723 25.3492C184.594 26.0389 185.284 26.7648 185.792 27.5278H186.064V12.28H193.416V50.399H186.064V50.3994ZM174.683 42.1224C175.99 43.4657 177.605 44.1373 179.53 44.1373C181.454 44.1373 183.07 43.4657 184.376 42.1224C185.683 40.7792 186.337 39.0909 186.337 37.0579C186.337 35.025 185.683 33.3367 184.376 31.9934C183.07 30.6502 181.454 29.9786 179.53 29.9786C177.606 29.9786 175.99 30.6502 174.683 31.9934C173.376 33.3367 172.723 35.025 172.723 37.0579C172.723 39.0909 173.376 40.7792 174.683 42.1224ZM215.743 50.3994V47.1322H215.471C214.817 47.9309 214.145 48.5664 213.456 49.0381C211.858 50.3089 209.898 50.944 207.575 50.944C205.142 50.944 203.173 50.2271 201.666 48.793C200.159 47.3588 199.406 45.5348 199.406 43.3197C199.406 41.1415 200.105 39.2809 201.503 37.7382C202.901 36.1955 204.834 35.2059 207.303 34.77L215.744 33.2454C215.598 32.2291 215.126 31.3847 214.328 30.7131C213.529 30.0415 212.458 29.7059 211.115 29.7059C209.445 29.7059 207.975 30.2142 206.704 31.2305C206.051 31.7027 205.524 32.1929 205.125 32.7008L200.769 28.3446C201.568 27.3641 202.493 26.5111 203.546 25.7852C206.087 24.0426 208.791 23.1711 211.66 23.1711C215 23.1711 217.74 24.1877 219.882 26.2207C222.024 28.2537 223.095 30.7764 223.095 33.7899V50.399H215.744L215.743 50.3994ZM215.743 38.9638V38.4193L209.753 39.5083C207.756 39.9073 206.758 40.8154 206.758 42.231C206.758 44.046 207.847 44.9537 210.025 44.9537C211.659 44.9537 213.02 44.391 214.109 43.2654C215.198 42.1401 215.743 40.706 215.743 38.9634L215.743 38.9638ZM230.174 50.3994V23.716H237.525V27.5282H237.798C238.306 26.6929 238.887 25.9669 239.54 25.3496C241.21 23.8974 243.08 23.1715 245.149 23.1715C247.509 23.1715 249.542 23.9521 251.248 25.5133C251.974 26.1668 252.573 26.9289 253.045 27.8004H253.318C253.898 26.9655 254.643 26.203 255.551 25.5133C257.547 23.9521 259.707 23.1715 262.031 23.1715C264.717 23.1715 266.932 24.1425 268.675 26.0846C270.417 28.027 271.289 30.5955 271.289 33.7903V50.3994H263.937V34.8794C263.937 31.7935 262.485 30.2504 259.581 30.2504C258.056 30.2504 256.812 30.7493 255.85 31.7479C254.888 32.7461 254.407 34.0622 254.407 35.6962V50.3994H247.056V34.8794C247.056 31.7935 245.603 30.2504 242.699 30.2504C241.174 30.2504 239.931 30.7493 238.969 31.7479C238.007 32.7461 237.525 34.0622 237.525 35.6962V50.3994H230.174ZM298.517 41.4138L302.328 46.5873C301.566 47.3498 300.586 48.0761 299.388 48.7658C296.774 50.2181 293.942 50.944 290.892 50.944C286.972 50.944 283.632 49.5826 280.872 46.86C278.113 44.1373 276.734 40.8697 276.734 37.0579C276.734 33.2458 278.095 29.9786 280.818 27.2559C283.54 24.5332 286.808 23.1719 290.62 23.1719C294.286 23.1719 297.427 24.4789 300.04 27.0926C302.654 29.7067 303.961 32.8468 303.961 36.5134C303.961 36.8765 303.907 37.6572 303.798 38.8552L303.688 39.781H284.357C284.793 41.1243 285.6 42.2318 286.78 43.1029C287.96 43.974 289.512 44.41 291.436 44.41C293.469 44.41 295.23 43.9197 296.718 42.9396C297.444 42.4675 298.043 41.9591 298.515 41.4146L298.517 41.4138ZM284.358 34.3348H296.338C295.902 33.0278 295.158 31.9297 294.106 31.0401C293.053 30.1509 291.8 29.7059 290.348 29.7059C288.896 29.7059 287.644 30.1509 286.591 31.0401C285.538 31.9293 284.794 33.0278 284.358 34.3348H284.358ZM309.408 50.3994V23.716H316.759V27.5282H317.032C317.613 26.729 318.284 26.0031 319.047 25.3496C320.789 23.8974 322.75 23.1715 324.928 23.1715C327.724 23.1715 330.056 24.1972 331.926 26.2483C333.795 28.2993 334.73 30.9948 334.73 34.3348V50.3994H327.379V35.4239C327.379 33.7903 326.943 32.5199 326.072 31.6122C325.2 30.7045 324.002 30.2508 322.478 30.2508C320.844 30.2508 319.483 30.8135 318.394 31.9387C317.305 33.0644 316.76 34.4981 316.76 36.2411V50.3994H309.408H309.408ZM343.443 41.1419V31.0676H338.814V24.2605H341.265C343.261 24.2605 344.26 23.1715 344.26 20.9933V16.0921H350.795V24.261H356.785V31.068H350.795V40.0533C350.795 41.2513 351.112 42.1866 351.748 42.8582C352.383 43.5298 353.245 43.8654 354.334 43.8654C355.097 43.8654 355.805 43.7745 356.458 43.5932C356.676 43.557 356.966 43.4661 357.33 43.3205V50.128C357.184 50.2004 356.948 50.2822 356.621 50.3727C356.295 50.4636 356.059 50.5269 355.914 50.5631C354.897 50.8173 353.735 50.9444 352.428 50.9444C349.669 50.9444 347.482 50.0914 345.866 48.385C344.251 46.6786 343.443 44.2644 343.443 41.1423V41.1419Z" fill="#000000"/>
<path d="M44.9142 0H18.508C8.28632 0 0 8.28632 0 18.508V44.9142C0 55.1359 8.28632 63.4222 18.508 63.4222H44.9142C55.1359 63.4222 63.4222 55.1359 63.4222 44.9142V18.508C63.4222 8.28632 55.1359 0 44.9142 0Z" fill="#002369"/>
<path fill-rule="evenodd" clip-rule="evenodd" d="M20.929 29.0512L31.8226 22.0574L49.9049 33.7139L49.8304 26.0624L31.7485 14.167L13.5186 25.9432V49.2562H35.3801V38.5559H39.8261V32.8769H28.4879V43.2782H21.0771L20.929 29.0512Z" fill="#96D228"/>
</svg>
